<svg version="1" xmlns="http://www.w3.org/2000/svg" width="21.333" height="21.333" viewBox="0 0 16.000000 16.000000"><path d="M6.791.834c-1.816.292-3.558 1.358-4.724 2.916C1.592 4.375 1 5.76.85 6.584c-.1.558-.083 2.241.033 2.766.392 1.842 1.434 3.417 2.959 4.458.674.467 1.708.934 2.341 1.059.108.025.383.075.608.125.234.041 2.134.083 4.35.091l3.933.009-.008-3.933c-.008-3.842-.033-4.217-.292-5.159-.508-1.891-1.891-3.583-3.658-4.483-.341-.175-1.266-.508-1.575-.566a27.543 27.543 0 0 1-.375-.075C8.758.784 7.283.759 6.791.834zm2.092 4.958c.667.3 1.192.95 1.325 1.642.075.383.092 2.675.017 2.783-.025.05-.592.075-1.45.067-1.117-.009-1.467-.042-1.734-.159-1.291-.558-1.858-2.008-1.266-3.233.583-1.183 1.883-1.642 3.108-1.1z"/></svg>